<svg viewBox="0 0 308.049 73.9614" xmlns="http://www.w3.org/2000/svg" xmlns:xlink="http://www.w3.org/1999/xlink" width="308.048584" height="73.961426" fill="none" customFrame="#000000">
	<g id="Group 2">
		<path id="Vector 1" d="M266.305 0.0470927C262.391 0.428865 258.69 1.84664 256.119 3.94555C254.075 5.61391 252.337 8.02059 251.343 10.5585C250.945 11.5793 250.491 13.3805 250.312 14.6671C250.135 15.9285 250.111 19.8606 250.272 20.9605C250.555 22.861 250.983 24.3275 251.686 25.7974C252.93 28.3891 254.659 30.4157 256.947 31.9663C259.365 33.6027 262.232 34.5984 265.694 35.002C267.041 35.1601 269.728 35.1601 271.084 35.0037C273.181 34.7615 275.518 34.151 277.346 33.3706L278.029 33.078L278.047 28.717L278.067 24.3561L277.726 24.6756C275.724 26.5424 271.661 27.6087 268.064 27.2118C263.618 26.7241 260.548 24.4318 259.515 20.8293C259.018 19.0903 259.067 16.4835 259.634 14.5124C260.104 12.8777 261.249 11.1555 262.558 10.1128C264.452 8.60586 266.484 7.90958 269.262 7.82045C272.217 7.72459 275.252 8.58568 277.269 10.0943C277.478 10.2507 277.692 10.4037 277.742 10.4357C277.819 10.4811 277.838 9.63513 277.838 6.30681L277.838 2.11909L277.53 1.961C276.072 1.20923 273.451 0.470911 271.12 0.158093C270.036 0.0117745 267.311 -0.0504528 266.305 0.0470926L266.305 0.0470927ZM82.3599 0.709729C82.3331 0.73832 82.3097 8.33677 82.3097 17.5952L82.3097 34.4302L91.1915 34.4302L91.1915 23.8381L93.9032 23.8381C96.707 23.8381 98.0629 23.7708 99.5025 23.564C103.023 23.056 105.455 22.0133 107.172 20.2743C108.501 18.9289 109.385 17.2437 109.79 15.2827C110.256 13.029 110.135 10.133 109.489 8.09459C108.686 5.55505 106.869 3.49986 104.379 2.30914C102.462 1.39087 99.9159 0.871184 96.6702 0.734956C94.7218 0.650865 82.4386 0.630684 82.3599 0.709729ZM114.265 17.5447L114.265 34.4302L138.555 34.4302L138.555 26.6787L123.069 26.6787L123.069 21.2296L136.886 21.2296L136.866 17.4119L136.847 13.5925L129.959 13.5723L123.069 13.5521L123.069 8.41077L138.252 8.41077L138.252 0.657593L114.265 0.657593L114.265 17.5447ZM153.585 0.983865C153.411 1.38414 140.604 34.3478 140.604 34.3965C140.604 34.4167 142.634 34.4302 145.115 34.4302L149.624 34.4302L149.745 34.1056C149.812 33.9256 150.239 32.7433 150.694 31.4769L151.519 29.1728L165.363 29.1728L166.189 31.4769C166.643 32.7433 167.07 33.9256 167.137 34.1056L167.259 34.4319L171.77 34.4319C174.249 34.4319 176.278 34.4083 176.278 34.3797C176.278 34.2822 163.279 0.850999 163.205 0.755137C163.145 0.679455 162.098 0.657592 158.428 0.657592L153.727 0.657592L153.585 0.983864L153.585 0.983865ZM185.053 1.09991C184.994 1.66332 184.887 3.42418 184.741 6.14537C184.269 14.9985 183.459 20.609 182.236 23.4866C181.641 24.8875 180.783 25.974 179.964 26.3625C179.258 26.6989 177.848 26.7527 176.906 26.4802L176.735 26.4298L176.735 34.1947L177.222 34.3461C179.36 35.0155 182 35.0356 183.851 34.3999C188.024 32.9636 190.831 27.7063 192.065 19.0163C192.408 16.608 193.129 9.65196 193.129 8.76227C193.129 8.65296 193.501 8.64118 196.735 8.64118L200.341 8.64118L200.341 34.4319L209.145 34.4319L209.145 0.655911L185.098 0.655911L185.053 1.09823L185.053 1.09991ZM215.446 17.5447L215.446 34.4302L223.774 34.4302L230.252 24.8405C233.816 19.5663 236.745 15.2625 236.758 15.2793C236.775 15.2945 236.752 16.1539 236.706 17.1848C236.66 18.2444 236.623 22.4085 236.623 26.7476L236.623 34.4319L245.427 34.4319L245.427 0.655911L241.271 0.674411L237.116 0.694593L230.637 10.3112C227.071 15.6005 224.139 19.9144 224.122 19.8959C224.103 19.8774 224.129 18.9339 224.175 17.8004C224.227 16.5138 224.251 12.9164 224.236 8.21736L224.212 0.694592L219.828 0.676092L215.446 0.65591L215.446 17.5414L215.446 17.5447ZM280.419 4.65023L280.419 8.64118L289.831 8.64118L289.831 34.4319L298.711 34.4319L298.711 8.64118L308.049 8.64118L308.049 0.657593L280.419 0.657593L280.419 4.65023L280.419 4.65023ZM97.9993 8.62268C99.3618 8.93214 100.205 9.55441 100.699 10.6173C100.919 11.0865 100.944 11.2194 100.97 12.0132C100.987 12.5346 100.962 13.0677 100.907 13.32C100.678 14.3564 100.085 15.0986 99.1275 15.5467C98.1282 16.0294 98.0662 16.0361 94.474 16.0681L91.1915 16.0967L91.1915 8.39732L94.2464 8.43096C96.9849 8.46123 97.3732 8.48141 97.9993 8.62268L97.9993 8.62268ZM158.938 11.0664C159.01 11.3153 159.884 13.8296 160.88 16.655C161.876 19.4805 162.691 21.8216 162.691 21.8552C162.691 21.8889 160.774 21.9191 158.431 21.9191C154.412 21.9191 154.174 21.9107 154.208 21.7846C154.226 21.7106 155.065 19.319 156.069 16.47C157.8 11.5591 158.081 10.688 158.287 9.59982C158.426 8.85477 158.453 8.86655 158.635 9.76127C158.731 10.2322 158.868 10.8191 158.938 11.0664L158.938 11.0664ZM82.3616 40.2392C82.3331 40.2678 82.3114 47.8662 82.3114 57.1263L82.3114 73.9613L90.5889 73.9613C99.2514 73.9613 99.8423 73.9445 101.781 73.6149C106.545 72.8076 109.529 69.9451 110.298 65.4412C110.488 64.3161 110.468 61.6874 110.259 60.5303C109.874 58.4112 109.06 56.7967 107.661 55.384C106.295 54.0032 104.651 53.164 102.348 52.6695C100.423 52.2558 99.9628 52.2238 95.4231 52.1851L91.1915 52.1481L91.1915 48.1706L107.663 48.1706L107.644 44.1999L107.624 40.2274L95.018 40.2072C88.0847 40.1971 82.3884 40.2106 82.3616 40.2409L82.3616 40.2392ZM123.595 40.399C123.471 40.7353 110.77 73.4349 110.656 73.7124L110.555 73.9613L119.616 73.9613L120.565 71.3141L121.514 68.6653L135.341 68.6653L136.285 71.294L137.229 73.9243L141.764 73.9428C144.258 73.9546 146.297 73.9546 146.295 73.9428C146.295 73.9327 143.349 66.341 139.747 57.0742L133.2 40.2291L128.436 40.2089L123.674 40.1887L123.595 40.4006L123.595 40.399ZM149.536 40.2392C149.507 40.2678 149.486 47.8662 149.486 57.1263L149.486 73.9613L158.29 73.9613L158.307 67.5334L158.327 61.1055L164.495 61.0853L170.662 61.0651L170.662 73.9613L179.544 73.9613L179.524 57.0927L179.505 40.2274L170.701 40.2274L170.681 46.694L170.662 53.1606L158.29 53.1606L158.29 40.1887L153.938 40.1887C151.544 40.1887 149.562 40.2123 149.536 40.2392L149.536 40.2392ZM185.818 40.2392C185.789 40.2678 185.766 47.8662 185.766 57.1263L185.766 73.9613L194.572 73.9613L194.572 60.9895L196.678 60.9928L198.784 60.9962L202.808 67.4762L206.83 73.958L211.715 73.958L216.599 73.9613L216.452 73.7124C216.372 73.5745 213.919 69.6996 211.003 65.0981C208.091 60.4984 205.706 56.6991 205.706 56.6554C205.707 56.6117 208.052 52.905 210.918 48.4179C212.666 45.6928 214.403 42.961 216.129 40.2224C216.129 40.2039 213.936 40.1955 211.256 40.2055L206.382 40.2274L202.59 46.6183L198.801 53.0075L194.572 53.0075L194.572 40.1887L190.22 40.1887C187.826 40.1887 185.846 40.2123 185.818 40.2392L185.818 40.2392ZM128.65 49.3883C128.915 50.658 128.903 50.6211 130.927 56.3577C131.906 59.1327 132.696 61.4133 132.683 61.4267C132.669 61.4402 130.744 61.4435 128.404 61.4318L124.151 61.4116L125.969 56.2686C127.629 51.5746 128.198 49.7801 128.347 48.7626C128.377 48.5608 128.414 48.4061 128.428 48.4212C128.441 48.4347 128.541 48.8703 128.65 49.3866L128.65 49.3883ZM99.012 60.0342C100.067 60.236 100.659 60.6598 101.071 61.5075C101.317 62.012 101.322 62.0406 101.322 63.0581C101.322 64.0621 101.314 64.1143 101.084 64.602C100.694 65.4362 100.077 65.9273 99.1744 66.1207C98.9065 66.1779 97.4988 66.2081 94.9812 66.2081L91.1898 66.2081L91.1898 59.9148L94.7854 59.9148C97.7415 59.9148 98.4964 59.9349 99.012 60.0342L99.012 60.0342Z" fill="rgb(255,255,255)" fill-rule="evenodd" />
		<path id="Vector 2" d="M0 0L0 73.9613L73.0964 73.9613L73.0964 0L0 0ZM60.8518 61.573L12.243 61.573L12.243 12.3883L61.0359 12.3883L61.0359 61.573L60.8518 61.573ZM51.5331 22.1882L27.2279 22.1882L21.5634 31.9882L45.8686 31.9882L51.5331 22.1882ZM51.5331 41.9731L27.2279 41.9731L21.5634 51.7731L45.8686 51.7731L51.5331 41.9731Z" fill="rgb(255,255,255)" fill-rule="evenodd" />
	</g>
</svg>
